<svg xmlns="http://www.w3.org/2000/svg" width="191.25" height="61" viewBox="0 0 191.25 61">
  <g id="Layer_1" data-name="Layer 1" transform="translate(-229.958 -197.528)">
    <g id="Group_5" data-name="Group 5" transform="translate(229.958 197.528)">
      <path id="Path_258" data-name="Path 258" d="M243.927,214.6h3.233a3.24,3.24,0,0,1,3.233,3.229v6.16c14.011-4.383,28.051,2.205,31.819,15.21a23.949,23.949,0,0,1,.58,2.5,24.441,24.441,0,0,0-2.122-3.516,26.135,26.135,0,1,1-19.906-34.806v5.572a20.683,20.683,0,0,0-24.858,24.575,31.6,31.6,0,0,1,8.021-6.681V214.6Zm25.507-8.005v6.668a20.6,20.6,0,0,1,7.38,15.032,23.2,23.2,0,0,1,4.858,6.512,26.125,26.125,0,0,0-12.238-28.212Zm-19.04,23.265v12.811a3.24,3.24,0,0,1-3.233,3.229h-3.072a20.736,20.736,0,0,0,24.081,0H265.1a3.24,3.24,0,0,1-3.233-3.229v-14.58a28.153,28.153,0,0,0-11.4,1.742l-.074.027Zm17.938-.567v16.489a20.668,20.668,0,0,0,8-12.172,24.736,24.736,0,0,0-8-4.317Zm-30.547,9.382a20.8,20.8,0,0,0,6.142,7.107v-12.59A31.115,31.115,0,0,0,237.786,238.671Z" transform="translate(-229.958 -194.209)" fill="#26385c" fill-rule="evenodd"/>
      <path id="Path_259" data-name="Path 259" d="M253.006,202.533h3.233v20.9a26.587,26.587,0,0,0-4.984-1.27c-.493-.076-.989-.138-1.483-.188v-16.2A3.243,3.243,0,0,1,253.006,202.533Z" transform="translate(-217.866 -194.474)" fill="#f79c23" fill-rule="evenodd"/>
      <path id="Path_260" data-name="Path 260" d="M249.773,197.528h3.233a3.243,3.243,0,0,1,3.233,3.233v3.233h-6.467Z" transform="translate(-217.866 -197.528)" fill="#f79c23" fill-rule="evenodd"/>
    </g>
    <g id="Group_9" data-name="Group 9" transform="translate(290.71 206.648)">
      <rect id="Rectangle_2" data-name="Rectangle 2" width="130.248" height="17.862" transform="translate(0 22.849)" fill="#26385c" stroke="#26385c" stroke-miterlimit="2.613" stroke-width="0.5"/>
      <g id="Group_6" data-name="Group 6">
        <path id="Path_261" data-name="Path 261" d="M340.9,222.448V203.255h6.166v14.094h8.382v5.1Z" transform="translate(-225.217 -203.255)" fill="#26385c" fill-rule="evenodd"/>
        <path id="Path_262" data-name="Path 262" d="M327.357,203.255h6.166v11.831a3.25,3.25,0,0,0,.686,2.34,3.09,3.09,0,0,0,2.282.7,3.031,3.031,0,0,0,2.233-.684,3.307,3.307,0,0,0,.672-2.354V203.255h6.167V215.57a6.694,6.694,0,0,1-2.327,5.507q-2.324,1.9-6.745,1.9-4.444,0-6.789-1.91a6.685,6.685,0,0,1-2.344-5.5Z" transform="translate(-233.482 -203.255)" fill="#26385c" fill-rule="evenodd"/>
        <path id="Path_263" data-name="Path 263" d="M316.916,222.448V203.255h14.522v4.832h-8.355v2.963h6.646v4.645h-6.646v6.754Z" transform="translate(-239.854 -203.255)" fill="#26385c" fill-rule="evenodd"/>
        <path id="Path_264" data-name="Path 264" d="M304.684,222.448V203.255h7.9a22.24,22.24,0,0,1,4.151.306,7.135,7.135,0,0,1,2.564.985,5.693,5.693,0,0,1,1.979,2.227,7.071,7.071,0,0,1,.654,3.155,6.306,6.306,0,0,1-1.9,4.934,7.931,7.931,0,0,1-5.489,1.713h-3.684v5.873Zm6.167-10.57h1.979a5.18,5.18,0,0,0,2.576-.432,1.691,1.691,0,0,0,.649-1.527,1.731,1.731,0,0,0-.623-1.535,5.139,5.139,0,0,0-2.6-.432h-1.979Z" transform="translate(-247.318 -203.255)" fill="#26385c" fill-rule="evenodd"/>
        <path id="Path_265" data-name="Path 265" d="M294.089,222.448V203.255h6.166v14.094h8.382v5.1Z" transform="translate(-253.785 -203.255)" fill="#26385c" fill-rule="evenodd"/>
        <path id="Path_266" data-name="Path 266" d="M282.537,207.847v-4.591h15.345v4.591H282.537Z" transform="translate(-260.834 -203.255)" fill="#f79c23" fill-rule="evenodd"/>
        <path id="Path_267" data-name="Path 267" d="M282.537,219.737V207.7h13.925v4.4H288.7v2.963h9.557v4.671Z" transform="translate(-260.834 -200.544)" fill="#26385c" fill-rule="evenodd"/>
        <path id="Path_268" data-name="Path 268" d="M269.059,222.448V203.255h6.166v6.513h5.739v-6.513h6.166v19.193h-6.166V215h-5.739v7.448Z" transform="translate(-269.059 -203.255)" fill="#26385c" fill-rule="evenodd"/>
      </g>
      <g id="Group_7" data-name="Group 7" transform="translate(0.465 43.833)">
        <path id="Path_269" data-name="Path 269" d="M271.673,236.951v-2.333l-2.325-3.976H271.6l1.09,2.15,1.1-2.15h2.182l-2.264,3.976v2.333Zm7.589-3.148a2.278,2.278,0,0,0,.3,1.316,1.075,1.075,0,0,0,.939.42,1.057,1.057,0,0,0,.931-.419,3.083,3.083,0,0,0,0-2.638,1.057,1.057,0,0,0-.931-.419,1.075,1.075,0,0,0-.939.42,2.282,2.282,0,0,0-.3,1.319Zm-2.043,0a3.3,3.3,0,0,1,.881-2.433,3.668,3.668,0,0,1,4.8,0,3.8,3.8,0,0,1,0,4.865,3.663,3.663,0,0,1-4.8,0,3.307,3.307,0,0,1-.881-2.431Zm8.629-3.159h2.026v3.889a1.075,1.075,0,0,0,.225.77,1.02,1.02,0,0,0,.75.23.992.992,0,0,0,.734-.227,1.079,1.079,0,0,0,.221-.773v-3.889h2.027v4.048a2.2,2.2,0,0,1-.765,1.81,3.426,3.426,0,0,1-2.217.626,3.47,3.47,0,0,1-2.232-.626,2.2,2.2,0,0,1-.77-1.81Z" transform="translate(-269.348 -230.476)" fill="#f79c23" fill-rule="evenodd"/>
        <path id="Path_270" data-name="Path 270" d="M288.074,236.888v-4.65h-1.816v-1.659h5.658v1.659H290.1v4.65Zm5.663,0v-6.309h2.027v2.142h1.887v-2.142h2.027v6.309h-2.027V234.44h-1.887v2.448Zm8.333,0v-6.309h2.063v6.309Zm4.46,0v-6.309h1.921l1.771,2.934a2.2,2.2,0,0,1,.176.351c.061.151.126.335.193.549-.018-.111-.029-.235-.037-.369s-.013-.3-.013-.49v-2.976h1.929v6.309h-1.929l-1.771-2.913a2.364,2.364,0,0,1-.179-.362c-.064-.158-.129-.338-.195-.541a2.958,2.958,0,0,1,.042.349c.01.121.013.291.013.512v2.955Zm8.306,0v-6.309h2.01v2.09l1.815-2.09h2.353l-2.253,2.325,2.543,3.984H318.89l-1.541-2.526-.5.517v2.01Z" transform="translate(-259.028 -230.413)" fill="#f79c23" fill-rule="evenodd"/>
      </g>
      <g id="Group_8" data-name="Group 8" transform="translate(66.65 43.833)">
        <path id="Path_271" data-name="Path 271" d="M311.972,236.888l-1.522-6.309h1.974l.686,4.074.8-4.074h1.676l.763,4.074.665-4.074h1.924l-1.5,6.309h-2.01l-.718-3.783-.692,3.783Zm8.8,0v-6.309h5.043v1.509H322.8v.844h2.551v1.448H322.8v.974h3.142v1.535Z" transform="translate(-310.45 -230.413)" fill="#26385c" fill-rule="evenodd"/>
        <path id="Path_272" data-name="Path 272" d="M327.366,234.507h1.923a2.675,2.675,0,0,1-.879,1.932,3.669,3.669,0,0,1-4.533-.2,3.854,3.854,0,0,1-.01-4.869,3.11,3.11,0,0,1,2.349-.892,3.247,3.247,0,0,1,2.156.662,2.621,2.621,0,0,1,.881,1.894h-1.939a.965.965,0,0,0-1.072-.977,1.012,1.012,0,0,0-.894.435,2.336,2.336,0,0,0-.3,1.314,2.212,2.212,0,0,0,.317,1.3,1.068,1.068,0,0,0,.928.441,1.025,1.025,0,0,0,.749-.271,1.187,1.187,0,0,0,.322-.77Zm5.939-1.153h.919a1.206,1.206,0,0,0,.668-.132.519.519,0,0,0,.185-.456.533.533,0,0,0-.185-.465,1.354,1.354,0,0,0-.72-.132H333.3v1.185Zm-2,3.6v-6.309h3.019a3.642,3.642,0,0,1,2.026.425,1.576,1.576,0,0,1,.607,1.391,1.725,1.725,0,0,1-.25.96,1.65,1.65,0,0,1-.767.6,1.208,1.208,0,0,1,.767.44,1.68,1.68,0,0,1,.258.96l.035.879,0,.021c.008.251.069.383.18.395v.235h-2.045c-.039-.151-.066-.283-.085-.4a1.619,1.619,0,0,1-.027-.263v-.631a.98.98,0,0,0-.193-.688.906.906,0,0,0-.667-.2h-.86v2.175Zm7.86,0v-6.309h5.045v1.509H341.19v.844h2.551v1.448H341.19v.974h3.142v1.535Zm9.262-2.158H349.7l-.63-2.185-.643,2.185Zm-2.607,2.158,2.221-6.309h2.053l2.221,6.309H350.3l-.237-.832h-2.011l-.243.832Zm9.246,0V232.3h-1.816v-1.659h5.66V232.3h-1.816v4.65Zm5.665,0v-6.309h5.043v1.509h-3.018v.844H365.3v1.448h-2.551v.974H365.9v1.535Z" transform="translate(-302.788 -230.476)" fill="#26385c" fill-rule="evenodd"/>
      </g>
      <path id="Path_273" data-name="Path 273" d="M273.95,230.708v-11.04h3.589v11.04Zm13.368,0v-11.04h3.345l3.084,5.134a3.738,3.738,0,0,1,.3.614c.108.267.219.586.34.96a6.361,6.361,0,0,1-.066-.644c-.016-.234-.024-.52-.024-.855v-5.208h3.361v11.04H294.3l-3.082-5.1a4.021,4.021,0,0,1-.311-.634c-.113-.277-.224-.591-.34-.947a5.216,5.216,0,0,1,.074.612c.016.213.023.512.023.9v5.172Zm19.542-3.44H310.3a1.377,1.377,0,0,0,.514.86,1.932,1.932,0,0,0,1.109.261,1.884,1.884,0,0,0,.971-.213.656.656,0,0,0,.353-.588c0-.4-.493-.721-1.481-.973l-.456-.113c-.808-.209-1.452-.4-1.934-.573a4.862,4.862,0,0,1-1.047-.485,2.97,2.97,0,0,1-.952-1.095,3.226,3.226,0,0,1-.316-1.456,3.074,3.074,0,0,1,1.229-2.583,6.608,6.608,0,0,1,6.716-.037,3.428,3.428,0,0,1,1.372,2.572h-3.345a1.045,1.045,0,0,0-.428-.726,1.711,1.711,0,0,0-.99-.242,1.514,1.514,0,0,0-.842.187.642.642,0,0,0-.275.57c0,.364.482.671,1.446.915.087.026.15.044.193.053l.638.156a9.39,9.39,0,0,1,2.507.886,3.181,3.181,0,0,1,1.066,1.108,3.038,3.038,0,0,1,.337,1.469,3.333,3.333,0,0,1-1.274,2.81,5.854,5.854,0,0,1-3.646.984,5.553,5.553,0,0,1-3.467-.984,3.716,3.716,0,0,1-1.436-2.763Zm19.1,3.44v-11.04h3.589v11.04Zm21.541,0-.171-.952a3.7,3.7,0,0,1-1.44.947,5.644,5.644,0,0,1-1.961.312,4.679,4.679,0,0,1-3.716-1.557,6.269,6.269,0,0,1-1.357-4.262,5.828,5.828,0,0,1,1.515-4.295,5.714,5.714,0,0,1,4.245-1.525,5.3,5.3,0,0,1,3.462,1.074,4.441,4.441,0,0,1,1.564,3.026h-3.346a1.937,1.937,0,0,0-.651-1.006,1.8,1.8,0,0,0-1.119-.345,1.75,1.75,0,0,0-1.583.816,4.528,4.528,0,0,0-.527,2.436,3.853,3.853,0,0,0,.528,2.238,1.853,1.853,0,0,0,1.612.742,2.323,2.323,0,0,0,1.317-.361,1.517,1.517,0,0,0,.668-.974h-1.591v-2.366h4.828v6.05Zm11.906,0v-11.04h3.528v3.745h3.285v-3.745h3.528v11.04h-3.528v-4.283h-3.285v4.283Zm22.354,0V222.57H378.6v-2.9h9.853v2.9h-3.163v8.138Z" transform="translate(-266.074 -193.416)" fill="#fff" fill-rule="evenodd"/>
    </g>
  </g>
</svg>
